<svg xmlns="http://www.w3.org/2000/svg" xmlns:xlink="http://www.w3.org/1999/xlink" xmlns:serif="http://www.serif.com/" width="100%" height="100%" viewBox="0 0 512 512" version="1.1" xml:space="preserve" style="fill-rule:evenodd;clip-rule:evenodd;stroke-linejoin:round;stroke-miterlimit:2;"><rect id="Transparent" x="0" y="0" width="512" height="512" style="fill:none;"/><g id="Transparent1" serif:id="Transparent"><rect x="0" y="0" width="512" height="512"/><path d="M360.623,92.091l-46.466,265.898l-46.057,-265.949c-2.051,-26.869 19.248,-49.8 46.262,-49.8c27.04,-0 48.363,22.983 46.261,49.877l0,-0.026Zm-208.51,376.389l-108.593,0l0,-416.883l108.593,0c58.41,0 84.45,28.352 84.45,91.905l0,229.801c0,65.829 -26.04,95.177 -84.45,95.177Zm-25.784,-77.665l9.329,-0c11.611,-0 16.48,-3.273 16.48,-23.546l0,-218.833c0,-20.758 -6.459,-22.445 -14.276,-22.445l-11.533,-0l0,264.824Zm234.631,26.072c0,25.669 -20.998,46.477 -46.902,46.477c-25.903,-0 -46.903,-20.808 -46.903,-46.477c0,-25.668 21,-46.477 46.903,-46.477c25.904,0 46.902,20.809 46.902,46.477Z" style="fill:#fff;"/></g><script xmlns=""/></svg>